<svg xmlns="http://www.w3.org/2000/svg" viewBox="-9 110 601.7799987792969 282.4075105259165"> <svg xmlns="http://www.w3.org/2000/svg" viewBox="-0.00016009912360459566 0.0007373737171292305 157.3105926513672 114.89288330078125" height="142.4075105259165" width="194.98345947265625" y="180" x="61" preserveAspectRatio="xMinYMin" style="overflow: visible;"><path class="a" d="M156.86283,54.31765,128.6574,37.29637l-8.37274-10.40376a.93011.93011,0,0,0-.61491-.34l-15.49757-1.805c-.028-.00181-.05471.00723-.08229.00723a.90549.90549,0,0,0-.13067.01176,56.7283,56.7283,0,0,0-.36216.10218L94.50723,30.196,80.896,33.8592,40.36792,4.89869c-.0113-.00814-.02622-.00723-.038-.01447a.91226.91226,0,0,0-.38793-.15011l-.01447-.00181-.01176-.0018L1.02808.00111A.8471.8471,0,0,0,.93223.00653C.91912.00653.906.00382.89289.00382.878.00472.86305-.0007.84813.00111.812.00382.7785.012.74233.01829A.9082.9082,0,0,0,.58589.06622C.56735.07255.54836.07707.53073.0843.49817.09967.46924.11685.43849.13494A.90984.90984,0,0,0,.31913.22266a.86854.86854,0,0,0-.06963.066C.23684.30223.21966.30856.2079.323.1975.33569.19479.35106.18529.36372A.85359.85359,0,0,0,.11838.465C.10933.48038.09486.49123.08673.5075.07587.52921.07587.55362.06683.57623a.88411.88411,0,0,0-.038.10851C.02433.70283.01258.71549.009.73357.00625.74714.01077.7607.00851.77427a.91378.91378,0,0,0-.00814.1266.835.835,0,0,0,.005.12569c.00317.02713.00271.05426.00859.08139a.89085.89085,0,0,0,.03889.11394.9104.9104,0,0,0,.05018.123c.01176.02261.01854.04521.03165.066a.83331.83331,0,0,0,.08681.10038A.88523.88523,0,0,0,.27663,1.589L57.60081,56.31611l-6.14188,8.56354a.91565.91565,0,0,0-.13971.30746c-.00136.00542-.00633.009-.00769.01446l-.00136.00543-.00045.00271-2.79694,11.5956c-.00542.02261.00317.04431-.00045.06691a.82291.82291,0,0,0-.024.09586l-1.43691,24.24377v.00091a.92736.92736,0,0,0,.1257.52177l7.44766,12.70153a.9256.9256,0,0,0,.79848.45756.78755.78755,0,0,0,.11213-.00723.92439.92439,0,0,0,.77587-.6547L67.34308,77.04585l20.61534-7.47841a.9132.9132,0,0,0,.40964-.29479L103.579,50.1245l22.13228-6.14821,30.3323,11.99438a.94213.94213,0,0,0,.34091.06511.92555.92555,0,0,0,.47837-1.71813ZM66.39675,75.02749,54.004,65.61664,83.01472,52.33546,68.22159,72.5362ZM59.41208,55.117l-5.215-14.32562,28.176,9.06994L66.08839,53.5888ZM28.39343,20.15663,5.60736,3.24838l32.89051,9.55735L50.14049,36.29352ZM53.2069,38.30826,41.28758,14.26343l36.60891,20.113Zm3.44441,1.32748,23.43625-3.73106,1.1412,3.35307,3.16589,9.30867L67.26621,43.053ZM82.44773,37.0929,100.088,48.50583l-13.56964.55162Zm2.46869-.60948L106.923,40.03724l-4.2257,7.95044Zm-44.78271-24.969.12751-1.19.32057-2.99679L67.42311,26.5083ZM77.2644,52.93048,54.99648,63.12535l4.3731-6.09848ZM52.77918,67.01285l11.19319,8.49934-2.53018.10128-10.84233.434Zm-2.4922,10.902,14.3957-.576L49.08338,98.235Zm74.29121-42.73361-13.48555-6.93854-2.069-1.06434,10.0556,1.17014Zm-20.48378-8.45683L124.65279,37.3027l-15.21136,1.02545-.86088.05788L96.67207,31.074Zm-9.36654,5.32983,9.1459,5.61559-18.7566-3.02935ZM38.36765,10.61284l-.02351.21884L12.14893,3.21944,38.81166,6.46129Zm-26.00983-.04973L51.90474,39.90884l4.69231,12.88962ZM49.08519,101.3276,64.2224,81.05091,55.143,111.65811ZM87.08037,67.91623,69.1331,74.427,86.3488,50.91936l.63164-.02532,14.07649-.57241ZM126.10371,42.1406a.92463.92463,0,0,0-.34092-.06511.89027.89027,0,0,0-.24777.03437l-20.64383,5.735,4.053-7.6249,18.8841-1.27323,18.592,11.22032Z" style="fill: #0b3edf;"></path></svg> <svg y="265.49000118255617" viewBox="2.259999990463257 13.600000381469727 336.7799987792969 44.019996643066406" x="186" height="44.019996643066406" width="336.7799987792969" style="overflow: visible;"><g fill="#13286c" fill-opacity="1" style=""><path d="M22.02 38.67L22.02 38.67Q22.02 41.46 20.64 43.43Q19.25 45.40 16.76 46.43Q14.27 47.46 10.89 47.46L10.89 47.46Q9.11 47.46 7.52 47.29Q5.93 47.12 4.60 46.79Q3.27 46.47 2.26 46.00L2.26 46.00L2.26 42.50Q3.87 43.16 6.19 43.73Q8.51 44.30 11.04 44.30L11.04 44.30Q13.41 44.30 15.04 43.67Q16.67 43.03 17.52 41.84Q18.37 40.65 18.37 38.97L18.37 38.97Q18.37 37.36 17.66 36.28Q16.95 35.19 15.31 34.30Q13.66 33.41 10.83 32.40L10.83 32.40Q8.83 31.69 7.30 30.84Q5.78 29.99 4.75 28.92Q3.72 27.84 3.19 26.43Q2.66 25.01 2.66 23.18L2.66 23.18Q2.66 20.67 3.94 18.87Q5.22 17.08 7.49 16.12Q9.75 15.17 12.70 15.17L12.70 15.17Q15.21 15.17 17.35 15.64Q19.49 16.11 21.27 16.91L21.27 16.91L20.13 20.04Q18.43 19.34 16.53 18.86Q14.63 18.39 12.61 18.39L12.61 18.39Q10.59 18.39 9.21 18.98Q7.82 19.57 7.09 20.65Q6.36 21.72 6.36 23.20L6.36 23.20Q6.36 24.86 7.06 25.95Q7.76 27.05 9.29 27.90Q10.83 28.75 13.36 29.67L13.36 29.67Q16.13 30.68 18.07 31.81Q20.00 32.94 21.01 34.56Q22.02 36.18 22.02 38.67ZM39.95 23.05L39.95 23.05Q42.96 23.05 45.11 24.38Q47.26 25.72 48.40 28.11Q49.54 30.51 49.54 33.71L49.54 33.71L49.54 35.92L33.27 35.92Q33.34 40.07 35.33 42.24Q37.33 44.41 40.96 44.41L40.96 44.41Q43.20 44.41 44.92 44Q46.63 43.59 48.48 42.80L48.48 42.80L48.48 45.93Q46.70 46.73 44.95 47.09Q43.20 47.46 40.81 47.46L40.81 47.46Q37.42 47.46 34.89 46.07Q32.37 44.69 30.97 42.00Q29.58 39.32 29.58 35.43L29.58 35.43Q29.58 31.63 30.85 28.84Q32.13 26.06 34.46 24.56Q36.79 23.05 39.95 23.05ZM39.91 25.97L39.91 25.97Q37.05 25.97 35.36 27.84Q33.66 29.71 33.34 33.06L33.34 33.06L45.80 33.06Q45.78 30.96 45.14 29.36Q44.51 27.76 43.22 26.87Q41.93 25.97 39.91 25.97ZM68.03 47.46L68.03 47.46Q64.85 47.46 62.42 46.15Q59.99 44.84 58.64 42.15Q57.28 39.47 57.28 35.38L57.28 35.38Q57.28 31.11 58.71 28.39Q60.14 25.67 62.65 24.36Q65.17 23.05 68.37 23.05L68.37 23.05Q70.13 23.05 71.77 23.41Q73.42 23.76 74.47 24.30L74.47 24.30L73.40 27.29Q72.32 26.86 70.92 26.51Q69.51 26.17 68.28 26.17L68.28 26.17Q65.83 26.17 64.21 27.22Q62.59 28.27 61.78 30.31Q60.98 32.36 60.98 35.34L60.98 35.34Q60.98 38.20 61.76 40.22Q62.55 42.24 64.10 43.30Q65.66 44.37 68.00 44.37L68.00 44.37Q69.87 44.37 71.38 43.97Q72.88 43.57 74.11 43.03L74.11 43.03L74.11 46.21Q72.92 46.81 71.47 47.14Q70.02 47.46 68.03 47.46ZM102.97 35.21L102.97 35.21Q102.97 38.11 102.22 40.39Q101.47 42.67 100.05 44.24Q98.63 45.80 96.62 46.63Q94.62 47.46 92.08 47.46L92.08 47.46Q89.72 47.46 87.75 46.63Q85.79 45.80 84.36 44.24Q82.93 42.67 82.14 40.39Q81.36 38.11 81.36 35.21L81.36 35.21Q81.36 31.35 82.67 28.63Q83.98 25.91 86.42 24.48Q88.86 23.05 92.23 23.05L92.23 23.05Q95.45 23.05 97.87 24.49Q100.29 25.93 101.63 28.65Q102.97 31.37 102.97 35.21ZM85.05 35.21L85.05 35.21Q85.05 38.05 85.81 40.13Q86.56 42.22 88.13 43.36Q89.70 44.49 92.17 44.49L92.17 44.49Q94.62 44.49 96.19 43.36Q97.77 42.22 98.53 40.13Q99.28 38.05 99.28 35.21L99.28 35.21Q99.28 32.40 98.53 30.35Q97.77 28.29 96.21 27.18Q94.64 26.06 92.14 26.06L92.14 26.06Q88.47 26.06 86.76 28.49Q85.05 30.92 85.05 35.21ZM123.29 23.05L123.29 23.05Q127.48 23.05 129.63 25.10Q131.78 27.16 131.78 31.69L131.78 31.69L131.78 47.03L128.25 47.03L128.25 31.93Q128.25 28.98 126.91 27.52Q125.57 26.06 122.79 26.06L122.79 26.06Q118.88 26.06 117.29 28.27Q115.71 30.49 115.71 34.70L115.71 34.70L115.71 47.03L112.14 47.03L112.14 23.48L115.02 23.48L115.55 26.88L115.75 26.88Q116.50 25.63 117.66 24.78Q118.82 23.93 120.26 23.49Q121.70 23.05 123.29 23.05ZM150.50 47.46L150.50 47.46Q146.03 47.46 143.42 44.41Q140.81 41.36 140.81 35.34L140.81 35.34Q140.81 29.26 143.48 26.16Q146.14 23.05 150.57 23.05L150.57 23.05Q152.44 23.05 153.83 23.55Q155.23 24.04 156.24 24.87Q157.25 25.70 157.94 26.75L157.94 26.75L158.19 26.75Q158.11 26.08 158.02 24.92Q157.94 23.76 157.94 23.03L157.94 23.03L157.94 13.60L161.50 13.60L161.50 47.03L158.62 47.03L158.09 43.68L157.94 43.68Q157.27 44.73 156.25 45.59Q155.23 46.45 153.82 46.95Q152.41 47.46 150.50 47.46ZM151.06 44.49L151.06 44.49Q154.84 44.49 156.41 42.35Q157.98 40.20 157.98 35.96L157.98 35.96L157.98 35.32Q157.98 30.83 156.49 28.42Q154.99 26.02 151.06 26.02L151.06 26.02Q147.77 26.02 146.14 28.54Q144.51 31.07 144.51 35.43L144.51 35.43Q144.51 39.77 146.13 42.13Q147.75 44.49 151.06 44.49ZM180.85 23.10L180.85 23.10Q185.06 23.10 187.10 24.99Q189.14 26.88 189.14 31.02L189.14 31.02L189.14 47.03L186.54 47.03L185.86 43.55L185.69 43.55Q184.70 44.84 183.62 45.71Q182.55 46.58 181.14 47.02Q179.73 47.46 177.69 47.46L177.69 47.46Q175.54 47.46 173.88 46.71Q172.21 45.96 171.26 44.43Q170.30 42.90 170.30 40.56L170.30 40.56Q170.30 37.04 173.10 35.15Q175.89 33.26 181.60 33.09L181.60 33.09L185.66 32.91L185.66 31.47Q185.66 28.42 184.35 27.20Q183.04 25.97 180.66 25.97L180.66 25.97Q178.81 25.97 177.13 26.51Q175.46 27.05 173.96 27.78L173.96 27.78L172.86 25.07Q174.45 24.26 176.51 23.68Q178.57 23.10 180.85 23.10ZM185.62 37.60L185.62 35.43L182.03 35.58Q177.63 35.75 175.82 37.02Q174.02 38.29 174.02 40.61L174.02 40.61Q174.02 42.63 175.24 43.59Q176.47 44.56 178.49 44.56L178.49 44.56Q181.63 44.56 183.62 42.82Q185.62 41.08 185.62 37.60L185.62 37.60ZM210.19 23.05L210.19 23.05Q210.90 23.05 211.67 23.13Q212.45 23.20 213.05 23.33L213.05 23.33L212.60 26.64Q212.02 26.49 211.31 26.40Q210.60 26.32 209.98 26.32L209.98 26.32Q208.56 26.32 207.30 26.89Q206.04 27.46 205.10 28.52Q204.15 29.58 203.62 31.08Q203.08 32.57 203.08 34.40L203.08 34.40L203.08 47.03L199.49 47.03L199.49 23.48L202.46 23.48L202.84 27.82L202.99 27.82Q203.72 26.51 204.76 25.43Q205.79 24.34 207.15 23.70Q208.52 23.05 210.19 23.05ZM226.19 47.07L216.76 23.48L220.58 23.48L225.78 37.15Q226.23 38.35 226.62 39.46Q227.01 40.56 227.31 41.57Q227.61 42.58 227.78 43.53L227.78 43.53L227.93 43.53Q228.23 42.45 228.79 40.70Q229.35 38.95 229.99 37.13L229.99 37.13L234.91 23.48L238.76 23.48L228.51 50.49Q227.69 52.66 226.61 54.27Q225.52 55.88 223.98 56.75Q222.43 57.62 220.24 57.62L220.24 57.62Q219.23 57.62 218.46 57.50Q217.68 57.38 217.12 57.23L217.12 57.23L217.12 54.38Q217.60 54.48 218.27 54.57Q218.95 54.66 219.68 54.66L219.68 54.66Q221.01 54.66 221.99 54.15Q222.97 53.65 223.68 52.68Q224.38 51.71 224.90 50.38L224.90 50.38L226.19 47.07ZM271.00 31.02L271.00 31.02Q271.00 36.33 269.06 39.89Q267.13 43.44 263.47 45.24Q259.80 47.03 254.58 47.03L254.58 47.03L246.05 47.03L246.05 15.62L255.53 15.62Q260.32 15.62 263.78 17.37Q267.24 19.12 269.12 22.55Q271.00 25.97 271.00 31.02ZM267.15 31.15L267.15 31.15Q267.15 26.92 265.75 24.17Q264.34 21.42 261.62 20.08Q258.90 18.73 254.97 18.73L254.97 18.73L249.71 18.73L249.71 43.89L254.15 43.89Q260.64 43.89 263.90 40.69Q267.15 37.49 267.15 31.15ZM304.46 47.03L300.68 47.03L296.81 37.06L284.22 37.06L280.38 47.03L276.68 47.03L288.97 15.49L292.26 15.49L304.46 47.03ZM285.45 33.82L295.72 33.82L292.04 23.91Q291.92 23.53 291.63 22.64Q291.34 21.76 291.04 20.82Q290.73 19.87 290.54 19.29L290.54 19.29Q290.33 20.17 290.08 21.04Q289.83 21.91 289.60 22.66Q289.36 23.40 289.19 23.91L289.19 23.91L285.45 33.82ZM339.04 31.28L339.04 31.28Q339.04 34.91 338.12 37.89Q337.20 40.86 335.38 43.00Q333.57 45.14 330.88 46.30Q328.20 47.46 324.65 47.46L324.65 47.46Q321.00 47.46 318.28 46.30Q315.56 45.14 313.77 42.99Q311.97 40.84 311.08 37.86Q310.19 34.87 310.19 31.24L310.19 31.24Q310.19 26.43 311.78 22.79Q313.37 19.16 316.60 17.14Q319.84 15.13 324.71 15.13L324.71 15.13Q329.38 15.13 332.57 17.12Q335.76 19.12 337.40 22.74Q339.04 26.36 339.04 31.28ZM314.04 31.28L314.04 31.28Q314.04 35.28 315.18 38.20Q316.31 41.12 318.67 42.71Q321.02 44.30 324.65 44.30L324.65 44.30Q328.30 44.30 330.63 42.71Q332.96 41.12 334.08 38.20Q335.20 35.28 335.20 31.28L335.20 31.28Q335.20 25.20 332.65 21.77Q330.11 18.35 324.71 18.35L324.71 18.35Q321.06 18.35 318.70 19.92Q316.34 21.48 315.19 24.37Q314.04 27.26 314.04 31.28Z" transform="translate(0, 0)"></path></g></svg></svg>