<svg width="14" height="14" viewBox="0 0 14 14" fill="none" xmlns="http://www.w3.org/2000/svg">
<path d="M1.54534 7.56641H6.14076V12.1618C6.14076 12.6289 6.52497 13.0206 6.99958 13.0206C7.47419 13.0206 7.8584 12.6289 7.8584 12.1618V7.56641H12.4538C12.9209 7.56641 13.3126 7.1822 13.3126 6.70759C13.3126 6.23298 12.9209 5.84877 12.4538 5.84877H7.8584V1.25335C7.8584 0.786272 7.47419 0.394531 6.99958 0.394531C6.52497 0.394531 6.14076 0.786272 6.14076 1.25335V5.84877H1.54534C1.07826 5.84877 0.686523 6.23298 0.686523 6.70759C0.686523 7.1822 1.07826 7.56641 1.54534 7.56641Z" fill="white"/>
</svg>
